<mxfile host="Electron" modified="2023-06-03T12:06:18.529Z" agent="Mozilla/5.0 (Macintosh; Intel Mac OS X 10_15_7) AppleWebKit/537.36 (KHTML, like Gecko) draw.io/21.2.8 Chrome/112.0.5615.165 Electron/24.2.0 Safari/537.36" etag="zOHKwFG_-76QtkFmI_T-" version="21.2.8" type="device">
  <diagram name="Page-1" id="c4ky7NZfeGjKAh7baJ_N">
    <mxGraphModel dx="1294" dy="854" grid="1" gridSize="10" guides="1" tooltips="1" connect="1" arrows="1" fold="1" page="1" pageScale="1" pageWidth="827" pageHeight="1169" math="0" shadow="0">
      <root>
        <mxCell id="0" />
        <mxCell id="1" parent="0" />
        <mxCell id="O3atv7OgBsxd6-HXczgO-30" value="ETCD" style="sketch=0;html=1;dashed=0;whitespace=wrap;fillColor=#2875E2;strokeColor=#ffffff;points=[[0.005,0.63,0],[0.1,0.2,0],[0.9,0.2,0],[0.5,0,0],[0.995,0.63,0],[0.72,0.99,0],[0.5,1,0],[0.28,0.99,0]];verticalLabelPosition=bottom;align=center;verticalAlign=top;shape=mxgraph.kubernetes.icon;prIcon=etcd" parent="1" vertex="1">
          <mxGeometry x="190" y="295.5" width="50" height="48" as="geometry" />
        </mxCell>
        <mxCell id="O3atv7OgBsxd6-HXczgO-32" value="" style="shape=flexArrow;endArrow=classic;html=1;rounded=0;fillColor=#f5f5f5;strokeColor=#666666;sketch=1;curveFitting=1;jiggle=2;startArrow=block;exitX=0.28;exitY=0.99;exitDx=0;exitDy=0;exitPerimeter=0;entryX=0.5;entryY=0;entryDx=0;entryDy=0;entryPerimeter=0;" parent="1" edge="1">
          <mxGeometry width="50" height="50" relative="1" as="geometry">
            <mxPoint x="233" y="227.99999999999997" as="sourcePoint" />
            <mxPoint x="214" y="295.98" as="targetPoint" />
          </mxGeometry>
        </mxCell>
        <mxCell id="O3atv7OgBsxd6-HXczgO-34" value="Reconcile" style="edgeLabel;html=1;align=center;verticalAlign=middle;resizable=0;points=[];labelBackgroundColor=none;fontSize=9;spacingBottom=5;rotation=-75;" parent="O3atv7OgBsxd6-HXczgO-32" vertex="1" connectable="0">
          <mxGeometry x="-0.0309" y="3" relative="1" as="geometry">
            <mxPoint x="-2" y="4" as="offset" />
          </mxGeometry>
        </mxCell>
        <mxCell id="O3atv7OgBsxd6-HXczgO-43" value="" style="shape=flexArrow;endArrow=classic;html=1;rounded=0;fontStyle=1;fillColor=#ffe6cc;strokeColor=#d79b00;sketch=1;curveFitting=1;jiggle=2;" parent="1" edge="1">
          <mxGeometry width="50" height="50" relative="1" as="geometry">
            <mxPoint x="580" y="210" as="sourcePoint" />
            <mxPoint x="300" y="260" as="targetPoint" />
          </mxGeometry>
        </mxCell>
        <mxCell id="O3atv7OgBsxd6-HXczgO-44" value="Manage" style="edgeLabel;html=1;align=center;verticalAlign=middle;resizable=0;points=[];labelBackgroundColor=none;fontSize=9;spacingBottom=-2;rotation=353;" parent="O3atv7OgBsxd6-HXczgO-43" vertex="1" connectable="0">
          <mxGeometry x="-0.3333" y="-1" relative="1" as="geometry">
            <mxPoint as="offset" />
          </mxGeometry>
        </mxCell>
        <mxCell id="O3atv7OgBsxd6-HXczgO-31" value="Controller" style="sketch=0;html=1;dashed=0;whitespace=wrap;fillColor=#2875E2;strokeColor=#ffffff;points=[[0.005,0.63,0],[0.1,0.2,0],[0.9,0.2,0],[0.5,0,0],[0.995,0.63,0],[0.72,0.99,0],[0.5,1,0],[0.28,0.99,0]];verticalLabelPosition=bottom;align=center;verticalAlign=top;shape=mxgraph.kubernetes.icon;prIcon=api;spacingLeft=58;" parent="1" vertex="1">
          <mxGeometry x="220" y="180" width="50" height="48" as="geometry" />
        </mxCell>
        <mxCell id="O3-BG6UI4jVY9xxw0ht_-1" value="OraOperator" style="shape=mxgraph.cisco.people.androgenous_person;html=1;pointerEvents=1;dashed=0;fillColor=#036897;strokeColor=#ffffff;strokeWidth=2;verticalLabelPosition=bottom;verticalAlign=top;align=center;outlineConnect=0;spacingRight=21;" parent="1" vertex="1">
          <mxGeometry x="154" y="120" width="79" height="82" as="geometry" />
        </mxCell>
        <mxCell id="O3-BG6UI4jVY9xxw0ht_-2" value="DBA" style="shape=mxgraph.cisco.people.androgenous_person;html=1;pointerEvents=1;dashed=0;fillColor=#036897;strokeColor=#ffffff;strokeWidth=2;verticalLabelPosition=bottom;verticalAlign=top;align=center;outlineConnect=0;flipH=1;" parent="1" vertex="1">
          <mxGeometry x="594" y="120" width="79" height="82" as="geometry" />
        </mxCell>
        <mxCell id="O3-BG6UI4jVY9xxw0ht_-3" value="Developer" style="points=[[0.35,0,0],[0.98,0.51,0],[1,0.71,0],[0.67,1,0],[0,0.795,0],[0,0.65,0]];verticalLabelPosition=bottom;sketch=0;html=1;verticalAlign=top;aspect=fixed;align=center;pointerEvents=1;shape=mxgraph.cisco19.user;fillColor=#005073;strokeColor=none;" parent="1" vertex="1">
          <mxGeometry x="594" y="280" width="79" height="79" as="geometry" />
        </mxCell>
        <mxCell id="O3-BG6UI4jVY9xxw0ht_-5" value="&lt;font style=&quot;font-size: 9px;&quot;&gt;Monitor&lt;/font&gt;" style="shape=flexArrow;endArrow=classic;html=1;rounded=0;sketch=1;curveFitting=1;jiggle=2;fillColor=#e1d5e7;strokeColor=#9673a6;fontSize=9;labelBackgroundColor=none;" parent="1" edge="1">
          <mxGeometry width="50" height="50" relative="1" as="geometry">
            <mxPoint x="274" y="140" as="sourcePoint" />
            <mxPoint x="364" y="140" as="targetPoint" />
            <Array as="points" />
          </mxGeometry>
        </mxCell>
        <mxCell id="O3-BG6UI4jVY9xxw0ht_-6" value="&lt;font style=&quot;font-size: 9px;&quot;&gt;Events&lt;/font&gt;" style="shape=flexArrow;endArrow=classic;html=1;rounded=0;sketch=1;curveFitting=1;jiggle=2;fillColor=#fff2cc;strokeColor=#d6b656;fontSize=9;labelBackgroundColor=none;" parent="1" edge="1">
          <mxGeometry width="50" height="50" relative="1" as="geometry">
            <mxPoint x="334" y="160.5" as="sourcePoint" />
            <mxPoint x="244" y="160.5" as="targetPoint" />
            <Array as="points" />
          </mxGeometry>
        </mxCell>
        <mxCell id="O3-BG6UI4jVY9xxw0ht_-7" value="&lt;font style=&quot;font-size: 9px;&quot;&gt;Adjust&lt;/font&gt;" style="shape=flexArrow;endArrow=classic;html=1;rounded=0;sketch=1;curveFitting=1;jiggle=2;fillColor=#dae8fc;strokeColor=#6c8ebf;fontSize=9;labelBackgroundColor=none;" parent="1" edge="1">
          <mxGeometry width="50" height="50" relative="1" as="geometry">
            <mxPoint x="274" y="180" as="sourcePoint" />
            <mxPoint x="364" y="180" as="targetPoint" />
            <Array as="points" />
          </mxGeometry>
        </mxCell>
        <mxCell id="O3-BG6UI4jVY9xxw0ht_-8" value="&lt;font style=&quot;font-size: 9px;&quot;&gt;Provision&lt;/font&gt;" style="shape=flexArrow;endArrow=classic;html=1;rounded=0;sketch=1;curveFitting=1;jiggle=2;fillColor=#d5e8d4;strokeColor=#82b366;fontSize=9;labelBackgroundColor=none;" parent="1" edge="1">
          <mxGeometry x="0.3333" width="50" height="50" relative="1" as="geometry">
            <mxPoint x="272" y="105.5" as="sourcePoint" />
            <mxPoint x="362" y="105.5" as="targetPoint" />
            <Array as="points" />
            <mxPoint as="offset" />
          </mxGeometry>
        </mxCell>
        <mxCell id="O3-BG6UI4jVY9xxw0ht_-9" value="&lt;font style=&quot;font-size: 9px;&quot;&gt;Tune&lt;/font&gt;" style="shape=flexArrow;endArrow=classic;html=1;rounded=0;sketch=1;curveFitting=1;jiggle=2;fillColor=#fff2cc;strokeColor=#d6b656;fontSize=9;labelBackgroundColor=none;" parent="1" edge="1">
          <mxGeometry x="-0.0222" width="50" height="50" relative="1" as="geometry">
            <mxPoint x="578" y="140" as="sourcePoint" />
            <mxPoint x="488" y="140" as="targetPoint" />
            <Array as="points" />
            <mxPoint as="offset" />
          </mxGeometry>
        </mxCell>
        <mxCell id="O3-BG6UI4jVY9xxw0ht_-10" value="&lt;font style=&quot;font-size: 9px;&quot;&gt;Enhance&lt;br&gt;&lt;/font&gt;" style="shape=flexArrow;endArrow=classic;html=1;rounded=0;sketch=1;curveFitting=1;jiggle=2;fillColor=#dae8fc;strokeColor=#6c8ebf;fontSize=9;labelBackgroundColor=none;" parent="1" edge="1">
          <mxGeometry width="50" height="50" relative="1" as="geometry">
            <mxPoint x="564" y="170" as="sourcePoint" />
            <mxPoint x="474" y="170" as="targetPoint" />
            <Array as="points" />
          </mxGeometry>
        </mxCell>
        <mxCell id="O3-BG6UI4jVY9xxw0ht_-11" value="&lt;font style=&quot;font-size: 9px;&quot;&gt;Deploy&lt;br&gt;&lt;/font&gt;" style="shape=flexArrow;endArrow=classic;html=1;rounded=0;sketch=1;curveFitting=1;jiggle=2;fillColor=#ffcc99;strokeColor=#dba91f;fontSize=9;labelBackgroundColor=none;" parent="1" edge="1">
          <mxGeometry width="50" height="50" relative="1" as="geometry">
            <mxPoint x="274" y="216" as="sourcePoint" />
            <mxPoint x="364" y="216" as="targetPoint" />
            <Array as="points" />
          </mxGeometry>
        </mxCell>
        <mxCell id="O3-BG6UI4jVY9xxw0ht_-14" value="" style="shape=flexArrow;endArrow=classic;html=1;rounded=0;sketch=1;curveFitting=1;jiggle=2;startArrow=block;" parent="1" edge="1">
          <mxGeometry width="50" height="50" relative="1" as="geometry">
            <mxPoint x="654" y="300" as="sourcePoint" />
            <mxPoint x="654" y="230" as="targetPoint" />
          </mxGeometry>
        </mxCell>
        <mxCell id="O3-BG6UI4jVY9xxw0ht_-15" value="Collaborate" style="edgeLabel;html=1;align=center;verticalAlign=top;resizable=0;points=[];rotation=-90;labelBackgroundColor=none;fontSize=9;labelPosition=center;verticalLabelPosition=bottom;" parent="O3-BG6UI4jVY9xxw0ht_-14" vertex="1" connectable="0">
          <mxGeometry x="-0.4" relative="1" as="geometry">
            <mxPoint x="-12" y="-12" as="offset" />
          </mxGeometry>
        </mxCell>
        <mxCell id="O3-BG6UI4jVY9xxw0ht_-16" value="" style="whiteSpace=wrap;html=1;strokeColor=none;" parent="1" vertex="1">
          <mxGeometry x="150" y="120" width="39" height="82" as="geometry" />
        </mxCell>
        <mxCell id="O3-BG6UI4jVY9xxw0ht_-17" value="" style="whiteSpace=wrap;html=1;strokeColor=none;" parent="1" vertex="1">
          <mxGeometry x="180" y="140" width="23" height="20" as="geometry" />
        </mxCell>
        <mxCell id="O3atv7OgBsxd6-HXczgO-28" value="" style="whiteSpace=wrap;html=1;dashed=1;fillColor=none;" parent="1" vertex="1">
          <mxGeometry x="170" y="30" width="200" height="350" as="geometry" />
        </mxCell>
        <mxCell id="O3atv7OgBsxd6-HXczgO-25" value="K8s Cluster" style="image;sketch=0;aspect=fixed;html=1;points=[];align=center;fontSize=12;image=img/lib/mscae/Kubernetes.svg;" parent="1" vertex="1">
          <mxGeometry x="150" y="10" width="50" height="48" as="geometry" />
        </mxCell>
        <mxCell id="O3atv7OgBsxd6-HXczgO-50" value="" style="shape=flexArrow;endArrow=classic;html=1;rounded=0;fontStyle=1;fillColor=#ffe6cc;strokeColor=#d79b00;sketch=1;curveFitting=1;jiggle=2;entryX=0.5;entryY=0.657;entryDx=0;entryDy=0;entryPerimeter=0;" parent="1" edge="1">
          <mxGeometry width="50" height="50" relative="1" as="geometry">
            <mxPoint x="580" y="354" as="sourcePoint" />
            <mxPoint x="295" y="283.94999999999993" as="targetPoint" />
          </mxGeometry>
        </mxCell>
        <mxCell id="O3atv7OgBsxd6-HXczgO-51" value="DevOps" style="edgeLabel;html=1;align=center;verticalAlign=middle;resizable=0;points=[];labelBackgroundColor=none;fontSize=9;spacingBottom=-4;rotation=16;" parent="O3atv7OgBsxd6-HXczgO-50" vertex="1" connectable="0">
          <mxGeometry x="-0.3333" y="-1" relative="1" as="geometry">
            <mxPoint as="offset" />
          </mxGeometry>
        </mxCell>
        <mxCell id="O3-BG6UI4jVY9xxw0ht_-18" value="Escalate" style="shape=flexArrow;endArrow=classic;html=1;rounded=1;sketch=1;curveFitting=1;jiggle=2;labelPosition=center;verticalLabelPosition=top;align=center;verticalAlign=bottom;spacingBottom=4;" parent="1" edge="1">
          <mxGeometry width="50" height="50" relative="1" as="geometry">
            <mxPoint x="220.00000000000045" y="89.99999999999977" as="sourcePoint" />
            <mxPoint x="640.0000000000005" y="89.99999999999977" as="targetPoint" />
            <Array as="points">
              <mxPoint x="320.00000000000045" y="39.99999999999977" />
              <mxPoint x="430.00000000000045" y="29.999999999999773" />
              <mxPoint x="540.0000000000005" y="39.99999999999977" />
            </Array>
          </mxGeometry>
        </mxCell>
        <mxCell id="cqUtCMPb0fnRLmvbg-4k-1" style="vsdxID=21;fillColor=none;gradientColor=none;strokeColor=none;spacingTop=-3;spacingBottom=-3;spacingLeft=-3;spacingRight=-3;points=[];labelBackgroundColor=none;rounded=0;html=1;whiteSpace=wrap;aspect=fixed;" vertex="1" parent="1">
          <mxGeometry x="378" y="100" width="124" height="100" as="geometry" />
        </mxCell>
        <mxCell id="cqUtCMPb0fnRLmvbg-4k-2" style="vsdxID=22;fillColor=#FFFFFF;gradientColor=none;shape=stencil(lVbbVhsxDPyafdWxJF+fKfwHB0Kzp2nCCaGFv6/T9VXZC7xtHMkjj8ZjDXz3tn983Q2k3i7n06/d3/H5sh/4x0A0Hve783iJXwPfD3z3cjrvfp5P78fn6ffr4zXy+vX79Oe6w8eUpy1YvGaR+pxWUKn/vx+m8Kf38xSPKUGB0ikB+wz1QdMCM9iQYtJSCEAuRfG0RAEUpai0FDwos4ZOBN736MEC6x4fAzgBHyuyPXwTlNG7gx/GY8NTEz0tGA2Wl+PVt4KB+h4YBcGv8aDAm54GjRBMT4MB7llgDWgECwQUehp4tf/I4FwP3TSydECDF+DkwMgWGCDTg8eikx6X8GO7scfHRlsZTAEK/Fh4EAI0lfdcEYK2qwJ0wCzgFegg4EORW1EgOHF6jtQLAeaYBfCYYQV4s229fLSNXcj4MnbUDm5ia2DaxNZg+JvgtlrFMngUmMQuuszYHlgozsHqTWvuVYZmQCG36KJenLsRRQIyBCgavmI40TIo++xMsCzTEihhjKpskMu0kRBhjNEjhC07yleg3goGvXopY44VptBctwTlGJR4FbD4YoVnMIKlaBOJuCX4iCXfJFMcsuBrcBLfFUIK/owpbL1KHsHI4/viqxnfu2q12SeiJIRKggLre3wqe80qpc0oCUavJGC1UGFF82+f6l8zXaqe396Uq5kTCs3zCVEYfT06i2eB8PYEWO4Liob7KFvfE24RHIqG18RMeI36uuDanelWyiv4XM+yhN/z1Wakk24ZaJuChXUtC1ZllCoWakHUaznPJtW+NzzUhOr4Gf32zTbRV0W76mTJt+Mq9zGzVG2Ot/GjjsYv4+EwTdbt/3KUjkvTGM73/wA=);strokeColor=none;spacingTop=-3;spacingBottom=-3;spacingLeft=-3;spacingRight=-3;points=[];labelBackgroundColor=none;rounded=0;html=1;whiteSpace=wrap;" vertex="1" parent="cqUtCMPb0fnRLmvbg-4k-1">
          <mxGeometry width="112.32047619047619" height="97.26027397260273" as="geometry" />
        </mxCell>
        <mxCell id="cqUtCMPb0fnRLmvbg-4k-3" style="vsdxID=23;fillColor=#FFFFFF;gradientColor=none;shape=stencil(pVnJchs5DP0aXVkkwfWc5T9SiTNWjWOnFCdx/n6g6eb2oCbtyk2iAD4S2wOoE737cf/p+93J6h/Pl6d/736fvzzfn+j9ydrz4/3d5fzMn0704UTvvj5d7v65PP18/LJ9//7pKnn99O3p13WHl03PkzJXJav/bAtWUfp/4eMm/vnnZZM32+9BK+92DQMq+sXuQlEZvwvtS7yyq73QvqKVC7vQvmScimGGzjopjujGKwfw0SidRngTlMmAb1TIgB9UiFN8q4wB/Ciuz1KZAD+pZACflPeAn1f3ZwEP+FWn4ievCPAtg8URPyXlaMS3Wdnc4z+cH7tgSfxz8di2QiV8bspnNs0YXQ7DCxScCjQqVO/eVjDK2FHBlFsdmDBzAI8W9EZlMKBVCeKX495iAEsHNqnjAKqhYeTOLYCq4Sb4MoCDPrZVL14jIJnpaTsVUy0e4njakJWG07IjtR9PG0iEW0bnIr7nAybADwLfs7cy4HdJuYO5oBxYq0kd4DvdComRO+9gxJdF/O6ULbcwWpb356zNUO56y5bcNspCueu9RFKKDvw/BkyvAWxxW17Z+CZxB7trFafh2Liq+EdST1QWSh9BIBpSwY2GIFPY4QCZScZCIpAWvMP04bHuJlF3WSoDvg2LosUkkyEQbbXWLBD44BF4h8E0JCKbhKb4fA2kPWl6toiJAN9KazE1ux1uX4WO3N5VYyP2LeBcXtbg1OrJa8G75D4Gdwr5XmI7hWy/guaeJSyhY20sOmzsdSjXqlGLz6LV4NzygO4FUbmovB3R2VlhBOf6jDzFK/a4MvQKOw4cdiWP+wtisYLYZDzf4BUraKVroAlkbp911XBDf+4aa2wrE4b3oqTOhLl+mb8QXjQ618YNwkerDMzF/Ao5K9tUDnAD0RNLiB0njkfaFKxJvg0yhTVrMHdJiz1LkXl9vei2nXQMElsWqyU4NQo+BpfN7Q1w23j0leBWziYS/MrPWKZlZ2tlpVzwc26DQ1miNnE1MsxYK+vE0/jZ1d6pprQvoXuE70S0W9ko9p1H6w9wLmRmxfZgZXqe98DtJG/PozOQlBMkxa6AauY1XH0sDHooCh77iKmwh3Zv1U3O5a+etH+nkGqVOA6zqlJCXJIiN1gBE0zOI+xUgxmW1Lz/JTkOdfHbiqp4/dB6BL8xDBWZoxATzXfbtPBlllVNphfPgcm97d4hKEKz33h1ofoQUuG7tyGSUnTgdpibO439PHZBQKlrcg3q1ANn6SjvG0cW43CDAAd2OC7Ao4htw0Jt04ybKHD1GjPBzSdDtmuKb0JI2MY4NzV6Da5XPhzJ/XGYBAXdqGBPLujGhbyFFnNholsKs+LYR0NVmKZFCiriUCifsviikJQmihY9cpuJ9WD1OMI6Bt9i5eNM/0h2PJOyFCHne+gwRVbS6HEzz+Hy/Fykl0/N8qWu6fQvdTgAsRTWvP49r43c87e3/lWt0jxO/FxVDHhXC+P2M0Th+WNTLSYO/tD+S/h6fnjY/orof8f/Hnhp+9+CPvwH);strokeColor=none;spacingTop=-3;spacingBottom=-3;spacingLeft=-3;spacingRight=-3;points=[];labelBackgroundColor=none;rounded=0;html=1;whiteSpace=wrap;" vertex="1" parent="cqUtCMPb0fnRLmvbg-4k-1">
          <mxGeometry width="115.06" height="100" as="geometry" />
        </mxCell>
        <mxCell id="cqUtCMPb0fnRLmvbg-4k-4" style="vsdxID=24;fillColor=#2d5967;gradientColor=none;shape=stencil(pVrbctw2DP2afdWIN5B8TtP/yDRO7alrZxyndf6+2llRBHGw4O70zVEgHhDAwU17Cp9+PH75/nDy64/3t9e/Hv59+vr+eAq/nbx/enl8eHt63/46hc+n8Onb69vDn2+vP1++Xv79/ctZ8vzX36//nE/4uLwXl5DOL/n11/6gLPny5PeL/PPTC5N3tFT6fy+ksHjjhfUu4eX8X1x+Fdr88fPtcl/X3ih5f2N/EvcTPvx+RD9zfxJiU2L9CPu1XL/W/iisQlUJ7cIioH3tB+9YLo3YPiN2WmIcsSfAtCQ/Irs6wh5m911XAdvU+NVNYMNuqoc6wtZ+qu9WE+aucOMQllXcuE78HJgb251XAZ0Xl6fQZYllhM6LiRx9P7ZZAq4dmW38EcsCO/mlhBF7tZATM5Pj8j22NzqRgBWYTOIWTHLLWk1MKl2rpsaImV2PzxZcwQLNjH2MXMLG2YN/XVwkNtrYme7dsIOATsBi2sKzCOgkoQlDy5Fp69J907HltbmUhS0ZZV+bkE9lEcipLkkgg72V+Io2n5SojoAcIMYQGT09QY7MQdeQY1xcGJEJUmdkJGnWXm3sLe9UByEu42zLciQKxhbiEj74nmzCIWUnb56XG34cwb0SaGD1zRpw9WRf3XuoGy5Lu7st1gS5vcNSyax4KGRhO6SYUrS2gip8HjxY3WGkh0nAFdkghAwu34q/wN4Kjoy33tW1J3aXNm8Dx7YxM77JPkUFyNAGTl4oLAh2lepiARSp0UQ+w/nRNNFWKMjd9QKrardoRKiRfYO7fTB/AbzsRbPvTBfL+1rSsVdISaFr2t+jzER6vGgC1UO5fjYvJEd/aqmexpkmZEOUlZxdbzLPJiCWdTyxanWT6rT2AnOkJLvzJmiQlDFnC/aDTS19YwrNIot5GSKQQNeeHR0euyMVHPG2MiVrR8nQLwRnEbKCrc4V0tYXR6RNX2mswjJJq0AF9JXGcjNwpaXjx7Z6g1OSzyMyp88xNhkxPmHbyE23juzZeikrYCtk3eDtQgNZcV8I6NKp7w926WQfX6G0zubmAm1AxBaE10d/2HUWE13kWkywtsrhsY29EcabhOwlNn+1NiRbBEpgq+k6h1hV7voqI1EU+tI6zTY0Ay/MDA6PbTsFVi4OY43INcAkaBW3yih5UxDeyaGp+MhQYk32/kQWFRiicbqgCGGWMe/RLQM8TTs5Ub+rM5Vl8m2PJUahLNZnlWDgZpW3eb1YqJwMDRXrqDL4Ht47poE+rYRR5Nrsh0mgH9oGHtwkVdyeeVxx2Lf2yGdmyz77yfRzOCSgSNCcLCK+ym4UYh4mxQrkDwXIz+/TLAexoVgp2MM5rkQC7r8CiyDmNTkrQnQEuXOHvQjukwPuJiLrTA34DLsJwBezKsxJ05Y0ZljJ9ne4wllwiUtdt9cMPuC6UoH3WFTjCqESYKFhtStcvEnPtvZY1KLIdkHZtilLLzAUjDLgp9qTpMODW87DsqDAJ8VSNNk0Rki5jZcHtuKkCptG/ECTzAqTlC7GIaFw5ZUcrH7A6slNNo1Ky+dkylXSfcIOSklkcocB4Ya5JMpvUyKJxaKwAhtNqwVgL+yXKRM1IxiJVlzHYqtHAfwj96FkfutIAZbQx5l97y4TPfkRlnAZSWZIKsPhcWbDwAQvb0u4f532hnw10HtD2dEzM7ZH846LJptnpeciJf9g+qM85yFNvhsqPCRYeys8JMx9Cg9nV1d4SAJb8hB7ceQheHvCwzzZkCs8zDifKjzM9ST9I3m4i9weG1kkKmWplQkIAZ+To7kVng9Xd78wG9+K/cUX+Vlw6lUIWvD7jMLRMmu8FUcUmRCRoQV/0IAULbPcpHC0KI03krSIxKgwdHpxhaIFuwTJ0qKUaaDp6PEJR+tsL6KQtOJWk3fFbYpL2ngieVrlsgMiFLcLVflGnyFJVFk1lfFVXn7GPsu0M+ntj/7DrW9Pz8+X333x/5c/9NoeXX4kFj7/Bw==);strokeColor=none;spacingTop=-3;spacingBottom=-3;spacingLeft=-3;spacingRight=-3;points=[];labelBackgroundColor=none;rounded=0;html=1;whiteSpace=wrap;" vertex="1" parent="cqUtCMPb0fnRLmvbg-4k-1">
          <mxGeometry x="1.3697619047619047" y="1.36986301369863" width="109.58095238095238" height="94.52054794520548" as="geometry" />
        </mxCell>
        <mxCell id="O3atv7OgBsxd6-HXczgO-24" value="CRD" style="sketch=0;html=1;dashed=0;whitespace=wrap;fillColor=#2875E2;strokeColor=#ffffff;points=[[0.005,0.63,0],[0.1,0.2,0],[0.9,0.2,0],[0.5,0,0],[0.995,0.63,0],[0.72,0.99,0],[0.5,1,0],[0.28,0.99,0]];verticalLabelPosition=top;align=center;verticalAlign=bottom;shape=mxgraph.kubernetes.icon;prIcon=crd;labelPosition=center;" parent="cqUtCMPb0fnRLmvbg-4k-1" vertex="1">
          <mxGeometry x="-27" y="34" width="50" height="48" as="geometry" />
        </mxCell>
      </root>
    </mxGraphModel>
  </diagram>
</mxfile>
